<mxfile host="app.diagrams.net" agent="Mozilla/5.0 (Windows NT 10.0; Win64; x64) AppleWebKit/537.36 (KHTML, like Gecko) Chrome/129.0.0.0 Safari/537.36" version="24.7.16">
  <diagram name="Страница — 1" id="iUJAYhB_a6hCMbwCqvpv">
    <mxGraphModel>
      <root>
        <mxCell id="0" />
        <mxCell id="1" parent="0" />
        <mxCell id="2" value="Start" style="whiteSpace=wrap;strokeWidth=2;" vertex="1" parent="1">
          <mxGeometry x="283" y="8" width="95" height="48" as="geometry" />
        </mxCell>
        <mxCell id="3" value="SelectRoom" style="whiteSpace=wrap;strokeWidth=2;" vertex="1" parent="1">
          <mxGeometry x="259" y="106" width="143" height="48" as="geometry" />
        </mxCell>
        <mxCell id="4" value="InputDetails" style="whiteSpace=wrap;strokeWidth=2;" vertex="1" parent="1">
          <mxGeometry x="258" y="205" width="146" height="48" as="geometry" />
        </mxCell>
        <mxCell id="5" value="CheckAvailability" style="whiteSpace=wrap;strokeWidth=2;" vertex="1" parent="1">
          <mxGeometry x="239" y="303" width="183" height="48" as="geometry" />
        </mxCell>
        <mxCell id="6" value="ConfirmBooking" style="whiteSpace=wrap;strokeWidth=2;" vertex="1" parent="1">
          <mxGeometry x="473" y="424" width="173" height="48" as="geometry" />
        </mxCell>
        <mxCell id="7" value="ShowAlternatives" style="whiteSpace=wrap;strokeWidth=2;" vertex="1" parent="1">
          <mxGeometry x="125" y="424" width="183" height="48" as="geometry" />
        </mxCell>
        <mxCell id="8" value="SelectOtherRoom" style="whiteSpace=wrap;strokeWidth=2;" vertex="1" parent="1">
          <mxGeometry x="8" y="522" width="184" height="48" as="geometry" />
        </mxCell>
        <mxCell id="9" value="SelectOtherHotel" style="whiteSpace=wrap;strokeWidth=2;" vertex="1" parent="1">
          <mxGeometry x="242" y="522" width="184" height="48" as="geometry" />
        </mxCell>
        <mxCell id="10" value="VerifyIdentity" style="whiteSpace=wrap;strokeWidth=2;" vertex="1" parent="1">
          <mxGeometry x="479" y="522" width="159" height="48" as="geometry" />
        </mxCell>
        <mxCell id="11" value="IntegrationCheck" style="whiteSpace=wrap;strokeWidth=2;" vertex="1" parent="1">
          <mxGeometry x="290" y="643" width="183" height="48" as="geometry" />
        </mxCell>
        <mxCell id="12" value="GenerateConfirmation" style="whiteSpace=wrap;strokeWidth=2;" vertex="1" parent="1">
          <mxGeometry x="326" y="764" width="220" height="48" as="geometry" />
        </mxCell>
        <mxCell id="13" value="RetryVerification" style="whiteSpace=wrap;strokeWidth=2;" vertex="1" parent="1">
          <mxGeometry x="584" y="643" width="181" height="48" as="geometry" />
        </mxCell>
        <mxCell id="14" value="ContactSupport" style="whiteSpace=wrap;strokeWidth=2;" vertex="1" parent="1">
          <mxGeometry x="641" y="764" width="171" height="48" as="geometry" />
        </mxCell>
        <mxCell id="15" value="SendConfirmation" style="whiteSpace=wrap;strokeWidth=2;" vertex="1" parent="1">
          <mxGeometry x="342" y="862" width="188" height="48" as="geometry" />
        </mxCell>
        <mxCell id="16" value="End" style="whiteSpace=wrap;strokeWidth=2;" vertex="1" parent="1">
          <mxGeometry x="393" y="961" width="86" height="48" as="geometry" />
        </mxCell>
        <mxCell id="17" value="" style="curved=1;startArrow=none;endArrow=block;exitX=0.51;exitY=1.01;entryX=0.5;entryY=0.01;" edge="1" parent="1" source="2" target="3">
          <mxGeometry relative="1" as="geometry">
            <Array as="points" />
          </mxGeometry>
        </mxCell>
        <mxCell id="18" value="" style="curved=1;startArrow=none;endArrow=block;exitX=0.5;exitY=1.02;entryX=0.5;entryY=0;" edge="1" parent="1" source="3" target="4">
          <mxGeometry relative="1" as="geometry">
            <Array as="points" />
          </mxGeometry>
        </mxCell>
        <mxCell id="19" value="" style="curved=1;startArrow=none;endArrow=block;exitX=0.5;exitY=1;entryX=0.5;entryY=0;" edge="1" parent="1" source="4" target="5">
          <mxGeometry relative="1" as="geometry">
            <Array as="points" />
          </mxGeometry>
        </mxCell>
        <mxCell id="20" value="Rooms available" style="curved=1;startArrow=none;endArrow=block;exitX=1;exitY=1.01;entryX=0.5;entryY=0;" edge="1" parent="1" source="5" target="6">
          <mxGeometry relative="1" as="geometry">
            <Array as="points">
              <mxPoint x="559" y="388" />
            </Array>
          </mxGeometry>
        </mxCell>
        <mxCell id="21" value="No rooms available" style="curved=1;startArrow=none;endArrow=block;exitX=0.25;exitY=1.01;entryX=0.5;entryY=0;" edge="1" parent="1" source="5" target="7">
          <mxGeometry relative="1" as="geometry">
            <Array as="points">
              <mxPoint x="217" y="388" />
            </Array>
          </mxGeometry>
        </mxCell>
        <mxCell id="22" value="" style="curved=1;startArrow=none;endArrow=block;exitX=0.19;exitY=1.01;entryX=0.5;entryY=0.01;" edge="1" parent="1" source="7" target="8">
          <mxGeometry relative="1" as="geometry">
            <Array as="points">
              <mxPoint x="100" y="497" />
            </Array>
          </mxGeometry>
        </mxCell>
        <mxCell id="23" value="" style="curved=1;startArrow=none;endArrow=block;exitX=0.82;exitY=1.01;entryX=0.5;entryY=0.01;" edge="1" parent="1" source="7" target="9">
          <mxGeometry relative="1" as="geometry">
            <Array as="points">
              <mxPoint x="334" y="497" />
            </Array>
          </mxGeometry>
        </mxCell>
        <mxCell id="24" value="" style="curved=1;startArrow=none;endArrow=block;exitX=0.5;exitY=1.01;entryX=0.5;entryY=0.01;" edge="1" parent="1" source="6" target="10">
          <mxGeometry relative="1" as="geometry">
            <Array as="points" />
          </mxGeometry>
        </mxCell>
        <mxCell id="25" value="" style="curved=1;startArrow=none;endArrow=block;exitX=0.06;exitY=1.02;entryX=0.5;entryY=0;" edge="1" parent="1" source="10" target="11">
          <mxGeometry relative="1" as="geometry">
            <Array as="points">
              <mxPoint x="382" y="607" />
            </Array>
          </mxGeometry>
        </mxCell>
        <mxCell id="26" value="Successful" style="curved=1;startArrow=none;endArrow=block;exitX=0.5;exitY=1.01;entryX=0.4;entryY=0;" edge="1" parent="1" source="11" target="12">
          <mxGeometry relative="1" as="geometry">
            <Array as="points">
              <mxPoint x="382" y="728" />
            </Array>
          </mxGeometry>
        </mxCell>
        <mxCell id="27" value="Unsuccessful" style="curved=1;startArrow=none;endArrow=block;exitX=0.79;exitY=1.02;entryX=0.5;entryY=0;" edge="1" parent="1" source="10" target="13">
          <mxGeometry relative="1" as="geometry">
            <Array as="points">
              <mxPoint x="675" y="607" />
            </Array>
          </mxGeometry>
        </mxCell>
        <mxCell id="28" value="Retry success" style="curved=1;startArrow=none;endArrow=block;exitX=0.23;exitY=1.01;entryX=0.71;entryY=0;" edge="1" parent="1" source="13" target="12">
          <mxGeometry relative="1" as="geometry">
            <Array as="points">
              <mxPoint x="552" y="728" />
            </Array>
          </mxGeometry>
        </mxCell>
        <mxCell id="29" value="Retry fail" style="curved=1;startArrow=none;endArrow=block;exitX=0.62;exitY=1.01;entryX=0.5;entryY=0;" edge="1" parent="1" source="13" target="14">
          <mxGeometry relative="1" as="geometry">
            <Array as="points">
              <mxPoint x="727" y="728" />
            </Array>
          </mxGeometry>
        </mxCell>
        <mxCell id="30" value="" style="curved=1;startArrow=none;endArrow=block;exitX=0.5;exitY=1.01;entryX=0.5;entryY=0.01;" edge="1" parent="1" source="12" target="15">
          <mxGeometry relative="1" as="geometry">
            <Array as="points" />
          </mxGeometry>
        </mxCell>
        <mxCell id="31" value="" style="curved=1;startArrow=none;endArrow=block;exitX=0.5;exitY=1.02;entryX=0.5;entryY=0;" edge="1" parent="1" source="15" target="16">
          <mxGeometry relative="1" as="geometry">
            <Array as="points" />
          </mxGeometry>
        </mxCell>
      </root>
    </mxGraphModel>
  </diagram>
</mxfile>
